<?xml version="1.0" encoding="UTF-8" standalone="no"?>
<!DOCTYPE svg PUBLIC "-//W3C//DTD SVG 1.1//EN" "http://www.w3.org/Graphics/SVG/1.1/DTD/svg11.dtd">
<svg xmlns="http://www.w3.org/2000/svg" version="1.1" viewBox="0 0 740 509">
<g stroke-width="2.00" fill="none" stroke-linecap="butt">
<path stroke="#bababa" vector-effect="non-scaling-stroke" d="
  M 39.12 0.05
  Q 35.66 4.52 32.50 9.19
  C 28.09 15.72 22.38 22.43 18.36 30.03
  C 16.61 33.32 14.05 36.02 12.40 39.06
  Q 8.36 46.51 7.24 48.02
  C 5.39 50.53 4.42 54.38 2.41 56.38
  Q 1.29 57.51 0.01 58.45"
/>
<path stroke="#d0d0d0" vector-effect="non-scaling-stroke" d="
  M 84.92 0.09
  Q 78.02 8.81 71.50 17.84
  C 70.44 19.31 68.82 20.09 67.62 21.61
  C 65.20 24.67 62.68 26.81 61.14 30.45
  A 0.96 0.96 0.0 0 1 60.76 30.89
  Q 59.13 31.96 58.81 33.97
  A 1.00 0.99 -18.2 0 1 58.53 34.52
  Q 54.98 38.11 53.02 42.73
  A 1.05 1.03 87.5 0 1 52.58 43.22
  Q 50.20 44.51 49.70 47.16
  A 1.03 1.00 -17.6 0 1 49.42 47.68
  C 48.59 48.51 47.85 48.84 47.24 49.90
  C 44.41 54.87 41.00 59.78 38.46 64.46
  Q 27.70 84.30 18.34 104.85
  C 17.59 106.50 17.41 108.26 16.73 109.74
  C 12.18 119.71 9.11 130.73 5.27 140.50
  Q 3.83 144.13 3.54 149.86
  A 1.00 0.96 68.2 0 1 3.30 150.45
  Q 1.82 152.20 2.30 154.55
  A 1.03 0.99 -34.8 0 1 2.15 155.30
  Q 0.61 157.63 0.00 154.44"
/>
<path stroke="#e2e2e2" vector-effect="non-scaling-stroke" d="
  M 128.31 0.00
  Q 121.57 7.03 114.64 13.88
  C 111.54 16.95 109.82 21.01 107.17 24.17
  Q 103.21 28.91 96.30 35.79
  Q 95.06 37.02 93.96 39.28
  C 91.52 44.26 86.63 45.93 84.69 51.45
  Q 83.51 54.79 80.33 56.64
  A 0.97 0.95 87.5 0 0 79.91 57.11
  Q 77.93 61.77 74.53 65.47
  C 72.84 67.31 72.02 69.50 70.59 71.52
  C 68.84 73.97 68.11 77.02 65.84 79.25
  Q 64.11 80.95 63.44 82.38
  Q 57.62 94.82 51.57 107.15
  C 49.82 110.73 48.63 115.54 46.43 119.45
  Q 45.02 121.95 44.07 124.70
  C 42.95 127.99 40.94 130.76 40.20 134.07
  C 39.37 137.72 38.55 140.62 36.79 144.40
  C 34.23 149.91 33.53 155.60 31.29 161.10
  Q 27.95 169.33 27.48 177.99
  Q 27.28 181.70 25.41 184.60
  Q 25.27 184.82 25.25 185.07
  C 24.62 194.49 21.96 203.89 22.05 213.24
  C 22.07 214.79 21.35 215.99 21.28 217.25
  Q 20.70 227.48 20.55 237.72
  C 20.52 239.63 19.50 241.55 19.65 243.75
  Q 20.34 254.17 19.74 264.56
  Q 19.59 267.26 20.14 270.88
  C 20.86 275.52 19.85 279.89 20.74 284.45
  Q 21.28 287.24 20.99 290.13
  C 20.78 292.27 22.16 293.76 21.99 296.06
  C 21.61 301.32 23.52 306.90 24.00 310.60
  C 24.74 316.32 24.77 321.59 26.67 327.20
  C 28.15 331.58 27.94 335.07 29.15 338.65
  Q 30.19 341.74 30.20 341.81
  C 32.06 349.90 35.04 357.62 37.98 367.25
  C 39.64 372.70 42.17 378.27 44.10 383.90
  C 44.93 386.30 46.39 388.63 47.23 391.15
  Q 48.70 395.53 49.22 396.68
  Q 60.01 420.37 73.95 442.36
  C 75.57 444.91 78.11 448.24 80.30 451.94
  C 81.21 453.48 83.28 455.44 84.58 457.61
  C 87.31 462.13 91.32 466.13 94.70 471.47
  C 98.19 476.98 104.11 481.73 108.67 486.42
  C 111.63 489.46 113.56 493.63 116.23 497.15
  C 118.90 500.66 123.49 503.03 126.04 506.96
  Q 127.01 508.45 125.19 509.00"
/>
<path stroke="#d0d0d0" vector-effect="non-scaling-stroke" d="
  M 79.97 508.99
  Q 79.51 505.21 76.22 503.07
  A 1.02 0.98 4.4 0 1 75.87 502.68
  Q 73.60 498.16 69.59 495.09
  A 1.08 1.02 10.7 0 1 69.25 494.62
  Q 68.23 491.63 65.56 489.97
  A 0.99 0.90 4.8 0 1 65.19 489.57
  C 63.50 486.13 60.57 483.53 58.71 480.89
  Q 55.98 477.02 53.01 473.33
  C 51.04 470.88 49.92 467.86 47.94 465.26
  Q 46.03 462.74 44.72 460.29
  C 43.04 457.18 40.61 454.52 39.07 451.69
  C 30.38 435.69 21.63 419.76 14.82 402.32
  C 11.60 394.07 6.46 382.52 3.57 371.98
  Q 3.25 370.82 1.84 369.77
  A 1.03 0.99 -76.6 0 1 1.44 369.09
  Q 1.29 367.81 0.00 367.69"
/>
<path stroke="#f5f5f5" vector-effect="non-scaling-stroke" d="
  M 156.04 -0.02
  Q 150.58 4.27 145.99 9.47
  Q 144.97 10.64 142.05 13.07
  C 137.22 17.10 133.51 22.21 126.38 29.12
  C 124.41 31.03 121.26 32.46 119.51 35.58
  A 1.01 0.95 -86.9 0 1 119.10 35.97
  C 116.71 37.21 115.29 40.03 113.17 41.82
  C 111.18 43.51 110.61 46.24 108.52 48.18
  C 104.61 51.84 102.67 56.22 99.36 60.10
  C 96.26 63.73 93.63 68.34 91.25 71.69
  Q 86.61 78.23 82.81 85.33
  C 81.69 87.41 79.63 88.85 78.81 91.51
  C 77.89 94.48 75.76 95.86 74.91 99.14
  C 73.73 103.68 70.61 106.83 69.12 110.82
  C 68.55 112.34 67.39 113.43 66.85 114.98
  Q 65.95 117.58 65.63 118.23
  C 63.47 122.56 62.34 127.93 59.48 132.51
  Q 58.23 134.51 57.75 136.76
  C 55.67 146.56 50.66 155.37 48.75 165.26
  C 47.80 170.21 46.20 174.05 45.56 178.38
  C 44.95 182.48 43.10 185.73 42.60 189.83
  C 41.88 195.78 40.63 200.14 39.58 205.45
  C 39.14 207.63 39.69 209.65 39.49 211.75
  C 38.60 221.01 36.25 230.03 36.95 239.77
  C 38.00 254.26 37.34 268.84 37.67 283.37
  C 37.77 287.44 38.79 291.63 39.42 295.73
  Q 39.69 297.48 39.98 304.32
  C 40.21 309.61 42.20 315.97 42.91 319.53
  C 46.19 335.91 50.21 348.44 55.96 366.80
  Q 58.22 374.04 67.64 394.40
  C 68.33 395.89 69.82 397.88 70.18 400.11
  C 70.49 401.98 71.09 402.66 72.46 403.75
  A 0.95 0.94 15.9 0 1 72.83 404.41
  C 73.33 408.65 78.00 413.72 79.87 417.94
  C 81.06 420.62 82.92 422.27 84.31 424.87
  C 89.05 433.74 95.66 442.09 101.36 450.41
  Q 105.74 456.80 112.37 464.37
  C 114.83 467.17 115.27 470.20 118.37 472.64
  C 120.40 474.24 121.92 476.61 123.51 478.15
  C 130.79 485.24 137.80 492.68 145.60 499.21
  Q 149.68 502.63 151.90 505.59
  Q 152.93 506.96 151.69 509.00"
/>
<path stroke="#f5f5f5" vector-effect="non-scaling-stroke" d="
  M 575.55 0.00
  Q 576.74 5.79 581.17 7.81
  Q 585.22 9.64 587.19 12.58
  C 589.85 16.56 602.52 23.97 602.95 26.45
  A 1.04 1.01 -73.6 0 0 603.23 26.98
  C 606.25 30.01 608.86 33.15 612.11 36.05
  Q 617.89 41.21 622.69 47.31
  C 633.20 60.67 642.01 74.73 651.09 89.06
  C 660.01 103.16 666.95 118.31 672.82 133.91
  C 675.47 140.94 678.30 150.28 681.18 158.41
  Q 681.61 159.60 681.95 161.68
  C 682.38 164.33 683.90 167.58 684.37 169.14
  C 685.77 173.83 687.05 177.80 687.93 183.12
  C 688.64 187.40 690.50 190.96 690.77 195.24
  Q 691.39 205.11 693.75 214.72
  Q 693.81 214.98 693.74 215.23
  Q 692.95 218.04 693.28 221.00
  Q 694.53 232.12 695.65 243.27
  C 696.39 250.63 695.78 256.92 696.40 263.57
  C 696.79 267.78 695.74 270.55 694.28 274.21
  A 0.96 0.94 -41.4 0 0 694.24 274.78
  C 695.02 278.54 693.38 280.92 693.45 284.32
  Q 693.67 294.07 691.98 303.59
  C 690.90 309.70 690.56 316.83 688.71 323.34
  C 688.10 325.47 688.18 327.87 687.34 330.16
  C 684.80 337.06 682.88 344.63 681.19 351.80
  C 679.94 357.10 677.56 361.54 675.50 367.57
  C 674.74 369.82 672.97 372.52 672.60 375.51
  C 672.39 377.24 670.88 378.37 670.38 380.04
  Q 668.23 387.19 664.63 393.66
  C 660.64 400.83 657.60 406.72 654.28 413.38
  C 653.59 414.77 652.27 416.06 652.06 418.20
  A 1.01 1.01 0.0 0 1 651.83 418.75
  Q 646.85 424.54 643.60 431.41
  Q 642.52 433.70 640.74 435.64
  Q 637.46 439.21 634.99 443.38
  C 632.85 447.00 630.35 449.93 628.09 453.33
  C 622.15 462.29 613.63 470.22 606.14 477.93
  Q 605.40 478.68 603.92 481.01
  C 602.39 483.42 600.17 483.63 599.56 486.58
  A 1.03 1.02 79.9 0 1 599.11 487.23
  C 596.27 489.01 588.77 492.00 587.41 496.75
  A 1.02 1.00 86.3 0 1 586.86 497.39
  L 581.72 499.67
  Q 581.53 499.76 581.39 499.92
  C 579.90 501.57 574.60 506.82 576.44 509.00"
/>
<path stroke="#929ab8" vector-effect="non-scaling-stroke" d="
  M 370.04 325.75
  Q 375.13 320.73 380.96 316.70
  Q 387.23 312.36 380.32 315.59
  Q 373.00 319.02 366.50 323.96"
/>
<path stroke="#80808e" vector-effect="non-scaling-stroke" d="
  M 366.50 323.96
  C 349.79 337.10 340.81 356.65 333.18 376.68
  Q 329.44 386.51 323.25 394.96"
/>
<path stroke="#929ab8" vector-effect="non-scaling-stroke" d="
  M 323.25 394.96
  L 322.50 395.04"
/>
<path stroke="#80808e" vector-effect="non-scaling-stroke" d="
  M 322.50 395.04
  C 315.06 390.75 309.25 380.96 305.18 373.62
  Q 293.45 352.46 284.86 329.84
  C 267.93 285.28 254.84 236.52 252.64 188.75
  C 251.92 173.23 252.36 144.53 265.88 133.19
  Q 270.86 129.01 277.63 127.50"
/>
<path stroke="#929ab8" vector-effect="non-scaling-stroke" d="
  M 277.63 127.50
  Q 280.88 127.96 284.03 128.22
  C 293.01 128.94 303.71 135.86 310.74 141.27
  Q 323.06 150.75 335.73 159.67"
/>
<path stroke="#80808e" vector-effect="non-scaling-stroke" d="
  M 335.73 159.67
  Q 342.07 164.63 351.21 169.26
  C 371.71 179.65 389.10 172.71 406.02 159.52
  Q 417.67 150.45 429.10 141.11
  C 439.40 132.71 451.72 123.37 465.84 124.21
  C 490.12 125.63 497.95 147.86 500.74 168.75
  Q 502.91 185.07 502.47 198.25
  Q 501.15 237.09 476.26 265.01
  Q 470.06 271.97 477.36 266.17
  Q 494.87 252.25 504.42 231.47
  C 519.75 198.10 526.05 128.53 485.86 108.39
  Q 466.94 98.92 446.22 104.59
  C 420.21 111.72 401.96 134.25 378.40 145.98
  Q 372.39 148.97 366.82 146.44
  C 355.62 141.35 344.79 131.55 334.93 123.56
  Q 322.55 113.52 308.51 106.05
  C 282.26 92.08 249.13 98.64 234.82 126.08
  C 218.90 156.61 223.19 197.70 229.72 230.56
  C 239.93 281.95 258.79 335.12 286.93 379.54
  Q 296.42 394.53 305.56 402.44
  C 318.88 413.97 332.19 413.02 339.06 395.31
  C 348.53 370.88 350.72 345.51 370.04 325.75"
/>
<path stroke="#131b46" vector-effect="non-scaling-stroke" d="
  M 335.73 159.67
  Q 341.19 162.76 346.64 165.84
  C 362.39 174.74 378.18 176.42 394.20 166.69
  C 408.74 157.85 421.21 145.70 437.25 134.01
  C 445.98 127.64 455.07 122.67 465.79 123.16
  C 494.09 124.46 501.72 156.47 502.84 178.84
  C 503.01 182.19 503.62 186.07 503.61 189.74
  C 503.56 212.47 498.93 235.35 485.54 254.55
  Q 485.40 254.75 485.28 255.10
  Q 484.34 257.75 486.53 255.99
  Q 489.63 253.50 492.04 250.28
  Q 510.24 226.02 513.60 195.77
  C 515.13 181.97 516.06 173.69 514.67 162.11
  C 513.12 149.14 511.30 138.26 505.03 127.48
  C 490.89 103.15 460.02 97.81 435.55 109.59
  C 419.32 117.41 404.80 129.44 390.27 140.03
  Q 383.55 144.93 374.83 148.11
  C 368.38 150.47 358.05 142.72 353.16 138.97
  Q 340.12 128.97 327.21 118.81
  C 318.41 111.89 307.75 105.63 296.76 102.25
  C 272.67 94.85 246.74 104.30 235.09 127.09
  Q 228.15 140.65 226.18 156.74
  Q 224.17 173.08 224.91 186.56
  C 227.24 228.76 238.81 272.06 254.22 311.31
  Q 263.41 334.71 267.08 341.71
  Q 271.92 350.94 276.53 360.25
  Q 282.93 373.16 294.64 388.99
  C 306.85 405.50 328.55 423.35 339.47 391.70
  Q 342.78 382.10 347.56 366.02
  C 352.46 349.55 357.66 337.93 367.73 326.23
  Q 368.84 324.94 370.04 325.75"
/>
<path stroke="#131b46" vector-effect="non-scaling-stroke" d="
  M 277.63 127.50
  Q 263.38 129.42 257.53 143.79
  C 249.66 163.13 250.78 184.45 252.70 204.67
  Q 253.43 212.34 254.32 218.13
  Q 266.48 296.58 299.55 365.46
  Q 305.30 377.43 316.39 391.58
  Q 317.11 392.49 321.17 395.49
  A 0.80 0.79 36.2 0 0 322.29 395.32
  L 322.50 395.04"
/>
<path stroke="#131b46" vector-effect="non-scaling-stroke" d="
  M 323.25 394.96
  Q 325.21 394.75 326.36 392.58
  Q 332.94 380.05 337.60 368.71
  C 344.02 353.05 352.29 336.05 366.58 325.43
  C 367.07 325.07 367.90 323.98 366.50 323.96"
/>
<path stroke="#84c3e4" vector-effect="non-scaling-stroke" d="
  M 319.79 165.44
  C 306.48 154.01 277.37 130.42 268.45 163.00
  C 262.46 184.85 264.63 209.89 268.63 232.11
  Q 280.27 296.68 311.76 354.47
  Q 313.65 357.94 317.45 363.79
  Q 322.40 371.42 318.86 363.05
  Q 293.31 302.61 281.23 238.10
  C 278.39 222.89 276.84 208.13 276.27 193.01
  C 275.97 185.06 276.92 164.83 282.19 158.59
  C 286.35 153.65 296.99 159.79 300.72 162.27
  C 321.25 175.92 346.22 199.29 375.38 199.53
  C 375.79 199.53 375.81 199.22 375.44 199.16
  C 352.93 195.50 336.36 179.66 319.79 165.44"
/>
<path stroke="#84c3e4" vector-effect="non-scaling-stroke" d="
  M 344.44 256.31
  C 360.56 266.56 378.33 275.27 398.01 269.09
  C 420.10 262.16 432.03 238.85 440.11 219.13
  A 1.00 1.00 0.0 0 1 441.02 218.51
  Q 445.78 218.44 449.65 215.84
  A 1.12 1.08 -7.6 0 0 450.04 215.35
  C 451.81 210.45 448.09 210.96 445.19 212.06
  Q 436.59 215.32 432.88 206.02
  Q 431.90 203.55 429.70 205.17
  C 425.84 208.00 430.03 213.04 432.68 215.57
  A 1.00 1.00 0.0 0 1 432.92 216.65
  C 417.45 256.97 368.70 268.41 335.69 242.44
  A 1.02 1.02 0.0 0 0 335.03 242.22
  Q 331.42 242.38 331.73 245.95
  A 1.01 1.00 -70.1 0 0 332.02 246.58
  Q 337.36 251.82 344.44 256.31"
/>
<path stroke="#84c3e4" vector-effect="non-scaling-stroke" d="
  M 460.18 315.45
  Q 461.99 322.67 456.83 326.84
  C 449.87 332.46 439.63 334.90 430.74 336.23
  Q 424.88 337.10 418.99 337.72
  Q 403.75 339.32 419.07 339.31
  Q 432.29 339.31 445.47 338.00
  C 451.24 337.43 469.67 334.79 467.84 325.70
  Q 466.75 320.22 461.73 315.48
  A 1.00 1.00 0.0 0 1 462.10 313.80
  Q 466.58 312.32 468.17 311.67
  C 472.51 309.90 478.54 304.88 477.08 300.21
  Q 474.61 292.28 468.58 286.67
  Q 466.59 284.82 467.26 287.46
  Q 468.70 293.12 466.00 297.83
  C 460.65 307.18 443.75 311.25 434.03 312.89
  Q 420.41 315.17 406.67 316.39
  Q 395.22 317.41 406.71 317.67
  Q 423.51 318.05 438.43 317.12
  Q 446.99 316.59 459.06 314.70
  A 1.00 0.99 78.6 0 1 460.18 315.45"
/>
<path stroke="#84c3e4" vector-effect="non-scaling-stroke" d="
  M 427.78 360.29
  Q 435.77 360.06 443.73 359.35
  C 449.68 358.82 464.78 356.32 457.63 345.89
  Q 456.61 344.40 455.44 343.07
  Q 453.70 341.11 454.04 343.70
  Q 454.66 348.39 450.73 351.50
  C 445.08 355.98 436.48 357.63 429.50 358.47
  Q 428.57 358.59 427.66 358.69
  Q 409.56 360.79 427.78 360.29"
/>
<path stroke="#84c3e4" vector-effect="non-scaling-stroke" d="
  M 429.54 402.10
  C 438.52 406.33 449.73 381.85 450.22 375.02
  Q 450.50 371.11 447.19 368.32
  Q 445.47 366.87 446.17 369.01
  Q 446.58 370.28 446.21 371.51
  C 445.08 375.22 438.93 377.31 435.24 378.25
  Q 426.36 380.50 417.28 380.79
  A 1.00 1.00 0.0 0 0 416.36 382.10
  Q 419.09 390.57 424.42 397.37
  Q 427.29 401.04 429.54 402.10"
/>
<path stroke="#e2e2e2" vector-effect="non-scaling-stroke" d="
  M 624.57 -0.01
  C 628.39 3.37 630.90 7.98 634.67 11.15
  C 638.97 14.77 641.12 19.29 645.90 23.03
  C 647.82 24.53 648.40 26.64 650.61 28.13
  A 1.04 1.03 7.9 0 1 650.99 28.63
  Q 652.93 34.16 658.24 36.80
  A 1.01 0.98 -87.8 0 1 658.72 37.33
  Q 660.63 42.22 664.06 46.02
  C 666.68 48.91 668.18 52.01 670.65 54.87
  Q 672.58 57.12 673.79 59.45
  C 676.60 64.86 680.05 70.30 683.34 77.59
  C 683.89 78.81 685.17 79.67 686.01 80.76
  A 1.06 1.01 27.7 0 1 686.22 81.38
  Q 686.18 84.28 688.43 86.01
  A 1.06 1.00 -76.4 0 1 688.81 86.68
  Q 689.17 89.58 690.44 91.56
  Q 699.23 105.41 704.28 120.06
  Q 704.74 121.40 706.26 124.66
  Q 707.33 126.95 707.86 129.45
  C 708.28 131.41 709.38 132.80 709.86 134.73
  C 711.34 140.68 713.22 146.32 715.68 151.89
  C 718.01 157.18 716.50 162.67 719.27 167.88
  Q 720.72 170.62 720.24 173.96
  A 0.99 0.98 -60.3 0 0 720.44 174.71
  Q 722.74 177.67 721.88 181.50
  A 0.97 0.92 38.8 0 0 721.97 182.16
  C 723.76 185.73 722.81 188.79 723.79 192.16
  Q 724.49 194.54 725.25 196.90
  C 726.36 200.30 725.89 203.45 726.17 206.97
  A 1.12 1.01 -68.6 0 0 726.37 207.50
  C 727.36 208.79 728.10 209.62 728.06 211.40
  Q 727.84 221.18 729.57 230.80
  A 0.98 0.95 50.9 0 1 729.52 231.36
  L 728.77 233.18
  A 1.01 1.01 0.0 0 0 728.92 234.19
  C 731.81 237.77 729.94 240.32 729.98 243.79
  Q 730.14 259.52 729.81 275.25
  C 729.73 278.96 728.47 284.51 729.42 289.52
  A 1.00 1.00 0.0 0 1 729.03 290.50
  Q 726.03 292.75 727.15 296.73
  A 1.01 0.95 -46.8 0 1 727.15 297.28
  C 726.17 300.69 725.24 303.55 725.34 307.32
  Q 725.52 314.40 723.21 321.17
  A 0.99 0.98 44.6 0 0 723.22 321.85
  Q 724.10 324.22 722.42 326.05
  A 1.02 0.97 68.2 0 0 722.16 326.70
  Q 722.01 331.83 720.50 336.72
  C 719.71 339.27 720.30 341.23 719.06 343.93
  C 717.13 348.14 716.87 352.90 715.36 357.22
  C 714.65 359.27 714.89 361.69 713.17 363.85
  Q 713.01 364.06 712.97 364.31
  C 712.73 365.77 712.71 366.97 712.27 368.38
  Q 706.02 388.56 697.11 407.70
  C 695.57 411.00 693.04 414.56 691.78 417.29
  Q 685.21 431.55 676.71 444.74
  A 0.99 0.97 8.2 0 1 676.15 445.15
  Q 675.18 445.44 675.49 446.38
  A 1.01 1.00 51.9 0 1 675.39 447.23
  C 668.74 457.64 664.51 462.78 659.29 470.70
  Q 657.28 473.74 654.45 476.66
  C 650.83 480.39 647.68 484.91 644.38 488.30
  C 639.90 492.91 636.04 496.80 630.37 501.59
  Q 627.45 504.05 626.69 509.00"
/>
<path stroke="#d0d0d0" vector-effect="non-scaling-stroke" d="
  M 659.56 0.00
  Q 662.34 4.34 665.38 8.54
  C 669.09 13.65 674.69 17.16 677.69 23.98
  C 678.77 26.44 681.08 28.01 682.53 30.63
  Q 684.39 33.97 687.45 37.30
  C 689.08 39.07 689.84 41.57 691.34 43.48
  Q 695.14 48.30 697.60 53.96
  A 1.00 0.95 -86.4 0 0 697.97 54.40
  Q 699.85 55.63 700.87 57.66
  Q 704.82 65.59 708.91 73.45
  C 709.57 74.71 711.06 75.63 711.49 76.54
  Q 713.76 81.36 716.32 86.07
  A 1.00 0.98 32.3 0 1 716.44 86.58
  C 716.29 91.05 719.97 95.21 721.10 98.30
  Q 723.03 103.57 725.70 108.49
  C 727.24 111.34 728.01 114.81 730.05 117.94
  Q 732.32 121.44 731.74 125.95
  A 0.97 0.97 0.0 0 0 731.95 126.70
  Q 734.78 130.25 734.54 134.71
  A 0.98 0.92 30.4 0 0 734.72 135.32
  L 737.90 139.97
  A 1.05 1.02 30.8 0 1 738.07 140.60
  Q 737.96 142.29 738.67 143.75
  Q 739.00 144.42 739.27 143.73
  Q 739.50 143.16 739.53 144.49
  Q 739.56 146.00 740.00 146.56"
/>
<path stroke="#d0d0d0" vector-effect="non-scaling-stroke" d="
  M 740.00 363.81
  Q 739.56 364.37 739.75 365.07
  A 1.00 1.00 0.0 0 1 739.75 365.59
  Q 739.41 366.85 739.19 365.55
  A 0.45 0.39 -83.2 0 0 739.00 365.27
  C 738.12 364.74 737.95 368.02 737.97 368.37
  A 1.03 1.02 -29.5 0 1 737.79 369.01
  C 734.72 373.45 734.68 377.86 731.88 382.14
  A 1.03 1.02 53.6 0 0 731.76 382.98
  C 733.04 387.12 730.27 389.01 729.01 392.13
  Q 727.64 395.52 725.86 398.69
  A 1.06 1.01 -33.6 0 0 725.73 399.26
  Q 725.85 400.69 725.73 400.99
  C 722.94 407.82 719.34 414.39 716.82 421.28
  C 715.42 425.12 713.04 427.88 711.59 431.25
  C 707.86 439.91 703.15 449.01 697.85 456.86
  C 691.61 466.10 686.09 475.67 678.86 484.10
  Q 675.78 487.68 674.67 490.46
  A 1.02 0.98 86.9 0 1 674.25 490.95
  C 670.26 493.32 668.11 498.13 666.00 500.26
  Q 663.84 502.44 663.07 504.31
  A 1.01 1.00 -2.8 0 1 662.60 504.82
  Q 659.97 506.17 659.44 509.00"
/>
<path stroke="#bababa" vector-effect="non-scaling-stroke" d="
  M 710.47 0.03
  Q 712.20 6.05 717.05 10.06
  A 1.05 0.99 -82.5 0 1 717.36 10.49
  C 719.04 15.22 722.23 17.10 724.45 21.20
  Q 725.90 23.87 728.69 28.31
  Q 735.01 38.38 739.95 44.10"
/>
<path stroke="#bababa" vector-effect="non-scaling-stroke" d="
  M 740.01 447.83
  L 737.41 449.97
  A 0.96 0.96 0.0 0 0 737.08 450.48
  Q 736.59 452.29 734.99 454.50
  Q 733.00 457.26 730.50 463.62
  A 1.05 1.01 83.7 0 1 730.16 464.06
  Q 726.60 466.68 725.76 471.00
  Q 725.26 473.57 722.98 475.58
  C 721.08 477.26 720.46 480.14 718.69 482.21
  C 717.10 484.07 715.94 486.51 714.69 488.21
  Q 711.97 491.93 709.20 495.63
  C 706.83 498.81 706.09 502.44 702.15 505.15
  A 1.00 0.99 81.1 0 0 701.76 505.69
  Q 701.28 507.35 700.06 508.44
  A 0.96 0.92 -67.1 0 1 699.48 508.69
  L 695.94 509.00"
/>
</g>
<path fill="#adadad" d="
  M 0.00 0.00
  L 39.12 0.05
  Q 35.66 4.52 32.50 9.19
  C 28.09 15.72 22.38 22.43 18.36 30.03
  C 16.61 33.32 14.05 36.02 12.40 39.06
  Q 8.36 46.51 7.24 48.02
  C 5.39 50.53 4.42 54.38 2.41 56.38
  Q 1.29 57.51 0.01 58.45
  L 0.00 0.00
  Z"
/>
<path fill="#c6c6c6" d="
  M 39.12 0.05
  L 84.92 0.09
  Q 78.02 8.81 71.50 17.84
  C 70.44 19.31 68.82 20.09 67.62 21.61
  C 65.20 24.67 62.68 26.81 61.14 30.45
  A 0.96 0.96 0.0 0 1 60.76 30.89
  Q 59.13 31.96 58.81 33.97
  A 1.00 0.99 -18.2 0 1 58.53 34.52
  Q 54.98 38.11 53.02 42.73
  A 1.05 1.03 87.5 0 1 52.58 43.22
  Q 50.20 44.51 49.70 47.16
  A 1.03 1.00 -17.6 0 1 49.42 47.68
  C 48.59 48.51 47.85 48.84 47.24 49.90
  C 44.41 54.87 41.00 59.78 38.46 64.46
  Q 27.70 84.30 18.34 104.85
  C 17.59 106.50 17.41 108.26 16.73 109.74
  C 12.18 119.71 9.11 130.73 5.27 140.50
  Q 3.83 144.13 3.54 149.86
  A 1.00 0.96 68.2 0 1 3.30 150.45
  Q 1.82 152.20 2.30 154.55
  A 1.03 0.99 -34.8 0 1 2.15 155.30
  Q 0.61 157.63 0.00 154.44
  L 0.01 58.45
  Q 1.29 57.51 2.41 56.38
  C 4.42 54.38 5.39 50.53 7.24 48.02
  Q 8.36 46.51 12.40 39.06
  C 14.05 36.02 16.61 33.32 18.36 30.03
  C 22.38 22.43 28.09 15.72 32.50 9.19
  Q 35.66 4.52 39.12 0.05
  Z"
/>
<path fill="#dadada" d="
  M 84.92 0.09
  L 128.31 0.00
  Q 121.57 7.03 114.64 13.88
  C 111.54 16.95 109.82 21.01 107.17 24.17
  Q 103.21 28.91 96.30 35.79
  Q 95.06 37.02 93.96 39.28
  C 91.52 44.26 86.63 45.93 84.69 51.45
  Q 83.51 54.79 80.33 56.64
  A 0.97 0.95 87.5 0 0 79.91 57.11
  Q 77.93 61.77 74.53 65.47
  C 72.84 67.31 72.02 69.50 70.59 71.52
  C 68.84 73.97 68.11 77.02 65.84 79.25
  Q 64.11 80.95 63.44 82.38
  Q 57.62 94.82 51.57 107.15
  C 49.82 110.73 48.63 115.54 46.43 119.45
  Q 45.02 121.95 44.07 124.70
  C 42.95 127.99 40.94 130.76 40.20 134.07
  C 39.37 137.72 38.55 140.62 36.79 144.40
  C 34.23 149.91 33.53 155.60 31.29 161.10
  Q 27.95 169.33 27.48 177.99
  Q 27.28 181.70 25.41 184.60
  Q 25.27 184.82 25.25 185.07
  C 24.62 194.49 21.96 203.89 22.05 213.24
  C 22.07 214.79 21.35 215.99 21.28 217.25
  Q 20.70 227.48 20.55 237.72
  C 20.52 239.63 19.50 241.55 19.65 243.75
  Q 20.34 254.17 19.74 264.56
  Q 19.59 267.26 20.14 270.88
  C 20.86 275.52 19.85 279.89 20.74 284.45
  Q 21.28 287.24 20.99 290.13
  C 20.78 292.27 22.16 293.76 21.99 296.06
  C 21.61 301.32 23.52 306.90 24.00 310.60
  C 24.74 316.32 24.77 321.59 26.67 327.20
  C 28.15 331.58 27.94 335.07 29.15 338.65
  Q 30.19 341.74 30.20 341.81
  C 32.06 349.90 35.04 357.62 37.98 367.25
  C 39.64 372.70 42.17 378.27 44.10 383.90
  C 44.93 386.30 46.39 388.63 47.23 391.15
  Q 48.70 395.53 49.22 396.68
  Q 60.01 420.37 73.95 442.36
  C 75.57 444.91 78.11 448.24 80.30 451.94
  C 81.21 453.48 83.28 455.44 84.58 457.61
  C 87.31 462.13 91.32 466.13 94.70 471.47
  C 98.19 476.98 104.11 481.73 108.67 486.42
  C 111.63 489.46 113.56 493.63 116.23 497.15
  C 118.90 500.66 123.49 503.03 126.04 506.96
  Q 127.01 508.45 125.19 509.00
  L 79.97 508.99
  Q 79.51 505.21 76.22 503.07
  A 1.02 0.98 4.4 0 1 75.87 502.68
  Q 73.60 498.16 69.59 495.09
  A 1.08 1.02 10.7 0 1 69.25 494.62
  Q 68.23 491.63 65.56 489.97
  A 0.99 0.90 4.8 0 1 65.19 489.57
  C 63.50 486.13 60.57 483.53 58.71 480.89
  Q 55.98 477.02 53.01 473.33
  C 51.04 470.88 49.92 467.86 47.94 465.26
  Q 46.03 462.74 44.72 460.29
  C 43.04 457.18 40.61 454.52 39.07 451.69
  C 30.38 435.69 21.63 419.76 14.82 402.32
  C 11.60 394.07 6.46 382.52 3.57 371.98
  Q 3.25 370.82 1.84 369.77
  A 1.03 0.99 -76.6 0 1 1.44 369.09
  Q 1.29 367.81 0.00 367.69
  L 0.00 154.44
  Q 0.61 157.63 2.15 155.30
  A 1.03 0.99 -34.8 0 0 2.30 154.55
  Q 1.82 152.20 3.30 150.45
  A 1.00 0.96 68.2 0 0 3.54 149.86
  Q 3.83 144.13 5.27 140.50
  C 9.11 130.73 12.18 119.71 16.73 109.74
  C 17.41 108.26 17.59 106.50 18.34 104.85
  Q 27.70 84.30 38.46 64.46
  C 41.00 59.78 44.41 54.87 47.24 49.90
  C 47.85 48.84 48.59 48.51 49.42 47.68
  A 1.03 1.00 -17.6 0 0 49.70 47.16
  Q 50.20 44.51 52.58 43.22
  A 1.05 1.03 87.5 0 0 53.02 42.73
  Q 54.98 38.11 58.53 34.52
  A 1.00 0.99 -18.2 0 0 58.81 33.97
  Q 59.13 31.96 60.76 30.89
  A 0.96 0.96 0.0 0 0 61.14 30.45
  C 62.68 26.81 65.20 24.67 67.62 21.61
  C 68.82 20.09 70.44 19.31 71.50 17.84
  Q 78.02 8.81 84.92 0.09
  Z"
/>
<path fill="#eaeaea" d="
  M 128.31 0.00
  L 156.04 -0.02
  Q 150.58 4.27 145.99 9.47
  Q 144.97 10.64 142.05 13.07
  C 137.22 17.10 133.51 22.21 126.38 29.12
  C 124.41 31.03 121.26 32.46 119.51 35.58
  A 1.01 0.95 -86.9 0 1 119.10 35.97
  C 116.71 37.21 115.29 40.03 113.17 41.82
  C 111.18 43.51 110.61 46.24 108.52 48.18
  C 104.61 51.84 102.67 56.22 99.36 60.10
  C 96.26 63.73 93.63 68.34 91.25 71.69
  Q 86.61 78.23 82.81 85.33
  C 81.69 87.41 79.63 88.85 78.81 91.51
  C 77.89 94.48 75.76 95.86 74.91 99.14
  C 73.73 103.68 70.61 106.83 69.12 110.82
  C 68.55 112.34 67.39 113.43 66.85 114.98
  Q 65.95 117.58 65.63 118.23
  C 63.47 122.56 62.34 127.93 59.48 132.51
  Q 58.23 134.51 57.75 136.76
  C 55.67 146.56 50.66 155.37 48.75 165.26
  C 47.80 170.21 46.20 174.05 45.56 178.38
  C 44.95 182.48 43.10 185.73 42.60 189.83
  C 41.88 195.78 40.63 200.14 39.58 205.45
  C 39.14 207.63 39.69 209.65 39.49 211.75
  C 38.60 221.01 36.25 230.03 36.95 239.77
  C 38.00 254.26 37.34 268.84 37.67 283.37
  C 37.77 287.44 38.79 291.63 39.42 295.73
  Q 39.69 297.48 39.98 304.32
  C 40.21 309.61 42.20 315.97 42.91 319.53
  C 46.19 335.91 50.21 348.44 55.96 366.80
  Q 58.22 374.04 67.64 394.40
  C 68.33 395.89 69.82 397.88 70.18 400.11
  C 70.49 401.98 71.09 402.66 72.46 403.75
  A 0.95 0.94 15.9 0 1 72.83 404.41
  C 73.33 408.65 78.00 413.72 79.87 417.94
  C 81.06 420.62 82.92 422.27 84.31 424.87
  C 89.05 433.74 95.66 442.09 101.36 450.41
  Q 105.74 456.80 112.37 464.37
  C 114.83 467.17 115.27 470.20 118.37 472.64
  C 120.40 474.24 121.92 476.61 123.51 478.15
  C 130.79 485.24 137.80 492.68 145.60 499.21
  Q 149.68 502.63 151.90 505.59
  Q 152.93 506.96 151.69 509.00
  L 125.19 509.00
  Q 127.01 508.45 126.04 506.96
  C 123.49 503.03 118.90 500.66 116.23 497.15
  C 113.56 493.63 111.63 489.46 108.67 486.42
  C 104.11 481.73 98.19 476.98 94.70 471.47
  C 91.32 466.13 87.31 462.13 84.58 457.61
  C 83.28 455.44 81.21 453.48 80.30 451.94
  C 78.11 448.24 75.57 444.91 73.95 442.36
  Q 60.01 420.37 49.22 396.68
  Q 48.70 395.53 47.23 391.15
  C 46.39 388.63 44.93 386.30 44.10 383.90
  C 42.17 378.27 39.64 372.70 37.98 367.25
  C 35.04 357.62 32.06 349.90 30.20 341.81
  Q 30.19 341.74 29.15 338.65
  C 27.94 335.07 28.15 331.58 26.67 327.20
  C 24.77 321.59 24.74 316.32 24.00 310.60
  C 23.52 306.90 21.61 301.32 21.99 296.06
  C 22.16 293.76 20.78 292.27 20.99 290.13
  Q 21.28 287.24 20.74 284.45
  C 19.85 279.89 20.86 275.52 20.14 270.88
  Q 19.59 267.26 19.74 264.56
  Q 20.34 254.17 19.65 243.75
  C 19.50 241.55 20.52 239.63 20.55 237.72
  Q 20.70 227.48 21.28 217.25
  C 21.35 215.99 22.07 214.79 22.05 213.24
  C 21.96 203.89 24.62 194.49 25.25 185.07
  Q 25.27 184.82 25.41 184.60
  Q 27.28 181.70 27.48 177.99
  Q 27.95 169.33 31.29 161.10
  C 33.53 155.60 34.23 149.91 36.79 144.40
  C 38.55 140.62 39.37 137.72 40.20 134.07
  C 40.94 130.76 42.95 127.99 44.07 124.70
  Q 45.02 121.95 46.43 119.45
  C 48.63 115.54 49.82 110.73 51.57 107.15
  Q 57.62 94.82 63.44 82.38
  Q 64.11 80.95 65.84 79.25
  C 68.11 77.02 68.84 73.97 70.59 71.52
  C 72.02 69.50 72.84 67.31 74.53 65.47
  Q 77.93 61.77 79.91 57.11
  A 0.97 0.95 87.5 0 1 80.33 56.64
  Q 83.51 54.79 84.69 51.45
  C 86.63 45.93 91.52 44.26 93.96 39.28
  Q 95.06 37.02 96.30 35.79
  Q 103.21 28.91 107.17 24.17
  C 109.82 21.01 111.54 16.95 114.64 13.88
  Q 121.57 7.03 128.31 0.00
  Z"
/>
<path fill="#ffffff" d="
  M 156.04 -0.02
  L 575.55 0.00
  Q 576.74 5.79 581.17 7.81
  Q 585.22 9.64 587.19 12.58
  C 589.85 16.56 602.52 23.97 602.95 26.45
  A 1.04 1.01 -73.6 0 0 603.23 26.98
  C 606.25 30.01 608.86 33.15 612.11 36.05
  Q 617.89 41.21 622.69 47.31
  C 633.20 60.67 642.01 74.73 651.09 89.06
  C 660.01 103.16 666.95 118.31 672.82 133.91
  C 675.47 140.94 678.30 150.28 681.18 158.41
  Q 681.61 159.60 681.95 161.68
  C 682.38 164.33 683.90 167.58 684.37 169.14
  C 685.77 173.83 687.05 177.80 687.93 183.12
  C 688.64 187.40 690.50 190.96 690.77 195.24
  Q 691.39 205.11 693.75 214.72
  Q 693.81 214.98 693.74 215.23
  Q 692.95 218.04 693.28 221.00
  Q 694.53 232.12 695.65 243.27
  C 696.39 250.63 695.78 256.92 696.40 263.57
  C 696.79 267.78 695.74 270.55 694.28 274.21
  A 0.96 0.94 -41.4 0 0 694.24 274.78
  C 695.02 278.54 693.38 280.92 693.45 284.32
  Q 693.67 294.07 691.98 303.59
  C 690.90 309.70 690.56 316.83 688.71 323.34
  C 688.10 325.47 688.18 327.87 687.34 330.16
  C 684.80 337.06 682.88 344.63 681.19 351.80
  C 679.94 357.10 677.56 361.54 675.50 367.57
  C 674.74 369.82 672.97 372.52 672.60 375.51
  C 672.39 377.24 670.88 378.37 670.38 380.04
  Q 668.23 387.19 664.63 393.66
  C 660.64 400.83 657.60 406.72 654.28 413.38
  C 653.59 414.77 652.27 416.06 652.06 418.20
  A 1.01 1.01 0.0 0 1 651.83 418.75
  Q 646.85 424.54 643.60 431.41
  Q 642.52 433.70 640.74 435.64
  Q 637.46 439.21 634.99 443.38
  C 632.85 447.00 630.35 449.93 628.09 453.33
  C 622.15 462.29 613.63 470.22 606.14 477.93
  Q 605.40 478.68 603.92 481.01
  C 602.39 483.42 600.17 483.63 599.56 486.58
  A 1.03 1.02 79.9 0 1 599.11 487.23
  C 596.27 489.01 588.77 492.00 587.41 496.75
  A 1.02 1.00 86.3 0 1 586.86 497.39
  L 581.72 499.67
  Q 581.53 499.76 581.39 499.92
  C 579.90 501.57 574.60 506.82 576.44 509.00
  L 151.69 509.00
  Q 152.93 506.96 151.90 505.59
  Q 149.68 502.63 145.60 499.21
  C 137.80 492.68 130.79 485.24 123.51 478.15
  C 121.92 476.61 120.40 474.24 118.37 472.64
  C 115.27 470.20 114.83 467.17 112.37 464.37
  Q 105.74 456.80 101.36 450.41
  C 95.66 442.09 89.05 433.74 84.31 424.87
  C 82.92 422.27 81.06 420.62 79.87 417.94
  C 78.00 413.72 73.33 408.65 72.83 404.41
  A 0.95 0.94 15.9 0 0 72.46 403.75
  C 71.09 402.66 70.49 401.98 70.18 400.11
  C 69.82 397.88 68.33 395.89 67.64 394.40
  Q 58.22 374.04 55.96 366.80
  C 50.21 348.44 46.19 335.91 42.91 319.53
  C 42.20 315.97 40.21 309.61 39.98 304.32
  Q 39.69 297.48 39.42 295.73
  C 38.79 291.63 37.77 287.44 37.67 283.37
  C 37.34 268.84 38.00 254.26 36.95 239.77
  C 36.25 230.03 38.60 221.01 39.49 211.75
  C 39.69 209.65 39.14 207.63 39.58 205.45
  C 40.63 200.14 41.88 195.78 42.60 189.83
  C 43.10 185.73 44.95 182.48 45.56 178.38
  C 46.20 174.05 47.80 170.21 48.75 165.26
  C 50.66 155.37 55.67 146.56 57.75 136.76
  Q 58.23 134.51 59.48 132.51
  C 62.34 127.93 63.47 122.56 65.63 118.23
  Q 65.95 117.58 66.85 114.98
  C 67.39 113.43 68.55 112.34 69.12 110.82
  C 70.61 106.83 73.73 103.68 74.91 99.14
  C 75.76 95.86 77.89 94.48 78.81 91.51
  C 79.63 88.85 81.69 87.41 82.81 85.33
  Q 86.61 78.23 91.25 71.69
  C 93.63 68.34 96.26 63.73 99.36 60.10
  C 102.67 56.22 104.61 51.84 108.52 48.18
  C 110.61 46.24 111.18 43.51 113.17 41.82
  C 115.29 40.03 116.71 37.21 119.10 35.97
  A 1.01 0.95 -86.9 0 0 119.51 35.58
  C 121.26 32.46 124.41 31.03 126.38 29.12
  C 133.51 22.21 137.22 17.10 142.05 13.07
  Q 144.97 10.64 145.99 9.47
  Q 150.58 4.27 156.04 -0.02
  Z
  M 370.04 325.75
  Q 375.13 320.73 380.96 316.70
  Q 387.23 312.36 380.32 315.59
  Q 373.00 319.02 366.50 323.96
  C 349.79 337.10 340.81 356.65 333.18 376.68
  Q 329.44 386.51 323.25 394.96
  L 322.50 395.04
  C 315.06 390.75 309.25 380.96 305.18 373.62
  Q 293.45 352.46 284.86 329.84
  C 267.93 285.28 254.84 236.52 252.64 188.75
  C 251.92 173.23 252.36 144.53 265.88 133.19
  Q 270.86 129.01 277.63 127.50
  Q 280.88 127.96 284.03 128.22
  C 293.01 128.94 303.71 135.86 310.74 141.27
  Q 323.06 150.75 335.73 159.67
  Q 342.07 164.63 351.21 169.26
  C 371.71 179.65 389.10 172.71 406.02 159.52
  Q 417.67 150.45 429.10 141.11
  C 439.40 132.71 451.72 123.37 465.84 124.21
  C 490.12 125.63 497.95 147.86 500.74 168.75
  Q 502.91 185.07 502.47 198.25
  Q 501.15 237.09 476.26 265.01
  Q 470.06 271.97 477.36 266.17
  Q 494.87 252.25 504.42 231.47
  C 519.75 198.10 526.05 128.53 485.86 108.39
  Q 466.94 98.92 446.22 104.59
  C 420.21 111.72 401.96 134.25 378.40 145.98
  Q 372.39 148.97 366.82 146.44
  C 355.62 141.35 344.79 131.55 334.93 123.56
  Q 322.55 113.52 308.51 106.05
  C 282.26 92.08 249.13 98.64 234.82 126.08
  C 218.90 156.61 223.19 197.70 229.72 230.56
  C 239.93 281.95 258.79 335.12 286.93 379.54
  Q 296.42 394.53 305.56 402.44
  C 318.88 413.97 332.19 413.02 339.06 395.31
  C 348.53 370.88 350.72 345.51 370.04 325.75
  Z
  M 319.79 165.44
  C 306.48 154.01 277.37 130.42 268.45 163.00
  C 262.46 184.85 264.63 209.89 268.63 232.11
  Q 280.27 296.68 311.76 354.47
  Q 313.65 357.94 317.45 363.79
  Q 322.40 371.42 318.86 363.05
  Q 293.31 302.61 281.23 238.10
  C 278.39 222.89 276.84 208.13 276.27 193.01
  C 275.97 185.06 276.92 164.83 282.19 158.59
  C 286.35 153.65 296.99 159.79 300.72 162.27
  C 321.25 175.92 346.22 199.29 375.38 199.53
  C 375.79 199.53 375.81 199.22 375.44 199.16
  C 352.93 195.50 336.36 179.66 319.79 165.44
  Z
  M 344.44 256.31
  C 360.56 266.56 378.33 275.27 398.01 269.09
  C 420.10 262.16 432.03 238.85 440.11 219.13
  A 1.00 1.00 0.0 0 1 441.02 218.51
  Q 445.78 218.44 449.65 215.84
  A 1.12 1.08 -7.6 0 0 450.04 215.35
  C 451.81 210.45 448.09 210.96 445.19 212.06
  Q 436.59 215.32 432.88 206.02
  Q 431.90 203.55 429.70 205.17
  C 425.84 208.00 430.03 213.04 432.68 215.57
  A 1.00 1.00 0.0 0 1 432.92 216.65
  C 417.45 256.97 368.70 268.41 335.69 242.44
  A 1.02 1.02 0.0 0 0 335.03 242.22
  Q 331.42 242.38 331.73 245.95
  A 1.01 1.00 -70.1 0 0 332.02 246.58
  Q 337.36 251.82 344.44 256.31
  Z
  M 460.18 315.45
  Q 461.99 322.67 456.83 326.84
  C 449.87 332.46 439.63 334.90 430.74 336.23
  Q 424.88 337.10 418.99 337.72
  Q 403.75 339.32 419.07 339.31
  Q 432.29 339.31 445.47 338.00
  C 451.24 337.43 469.67 334.79 467.84 325.70
  Q 466.75 320.22 461.73 315.48
  A 1.00 1.00 0.0 0 1 462.10 313.80
  Q 466.58 312.32 468.17 311.67
  C 472.51 309.90 478.54 304.88 477.08 300.21
  Q 474.61 292.28 468.58 286.67
  Q 466.59 284.82 467.26 287.46
  Q 468.70 293.12 466.00 297.83
  C 460.65 307.18 443.75 311.25 434.03 312.89
  Q 420.41 315.17 406.67 316.39
  Q 395.22 317.41 406.71 317.67
  Q 423.51 318.05 438.43 317.12
  Q 446.99 316.59 459.06 314.70
  A 1.00 0.99 78.6 0 1 460.18 315.45
  Z
  M 427.78 360.29
  Q 435.77 360.06 443.73 359.35
  C 449.68 358.82 464.78 356.32 457.63 345.89
  Q 456.61 344.40 455.44 343.07
  Q 453.70 341.11 454.04 343.70
  Q 454.66 348.39 450.73 351.50
  C 445.08 355.98 436.48 357.63 429.50 358.47
  Q 428.57 358.59 427.66 358.69
  Q 409.56 360.79 427.78 360.29
  Z
  M 429.54 402.10
  C 438.52 406.33 449.73 381.85 450.22 375.02
  Q 450.50 371.11 447.19 368.32
  Q 445.47 366.87 446.17 369.01
  Q 446.58 370.28 446.21 371.51
  C 445.08 375.22 438.93 377.31 435.24 378.25
  Q 426.36 380.50 417.28 380.79
  A 1.00 1.00 0.0 0 0 416.36 382.10
  Q 419.09 390.57 424.42 397.37
  Q 427.29 401.04 429.54 402.10
  Z"
/>
<path fill="#eaeaea" d="
  M 575.55 0.00
  L 624.57 -0.01
  C 628.39 3.37 630.90 7.98 634.67 11.15
  C 638.97 14.77 641.12 19.29 645.90 23.03
  C 647.82 24.53 648.40 26.64 650.61 28.13
  A 1.04 1.03 7.9 0 1 650.99 28.63
  Q 652.93 34.16 658.24 36.80
  A 1.01 0.98 -87.8 0 1 658.72 37.33
  Q 660.63 42.22 664.06 46.02
  C 666.68 48.91 668.18 52.01 670.65 54.87
  Q 672.58 57.12 673.79 59.45
  C 676.60 64.86 680.05 70.30 683.34 77.59
  C 683.89 78.81 685.17 79.67 686.01 80.76
  A 1.06 1.01 27.7 0 1 686.22 81.38
  Q 686.18 84.28 688.43 86.01
  A 1.06 1.00 -76.4 0 1 688.81 86.68
  Q 689.17 89.58 690.44 91.56
  Q 699.23 105.41 704.28 120.06
  Q 704.74 121.40 706.26 124.66
  Q 707.33 126.95 707.86 129.45
  C 708.28 131.41 709.38 132.80 709.86 134.73
  C 711.34 140.68 713.22 146.32 715.68 151.89
  C 718.01 157.18 716.50 162.67 719.27 167.88
  Q 720.72 170.62 720.24 173.96
  A 0.99 0.98 -60.3 0 0 720.44 174.71
  Q 722.74 177.67 721.88 181.50
  A 0.97 0.92 38.8 0 0 721.97 182.16
  C 723.76 185.73 722.81 188.79 723.79 192.16
  Q 724.49 194.54 725.25 196.90
  C 726.36 200.30 725.89 203.45 726.17 206.97
  A 1.12 1.01 -68.6 0 0 726.37 207.50
  C 727.36 208.79 728.10 209.62 728.06 211.40
  Q 727.84 221.18 729.57 230.80
  A 0.98 0.95 50.9 0 1 729.52 231.36
  L 728.77 233.18
  A 1.01 1.01 0.0 0 0 728.92 234.19
  C 731.81 237.77 729.94 240.32 729.98 243.79
  Q 730.14 259.52 729.81 275.25
  C 729.73 278.96 728.47 284.51 729.42 289.52
  A 1.00 1.00 0.0 0 1 729.03 290.50
  Q 726.03 292.75 727.15 296.73
  A 1.01 0.95 -46.8 0 1 727.15 297.28
  C 726.17 300.69 725.24 303.55 725.34 307.32
  Q 725.52 314.40 723.21 321.17
  A 0.99 0.98 44.6 0 0 723.22 321.85
  Q 724.10 324.22 722.42 326.05
  A 1.02 0.97 68.2 0 0 722.16 326.70
  Q 722.01 331.83 720.50 336.72
  C 719.71 339.27 720.30 341.23 719.06 343.93
  C 717.13 348.14 716.87 352.90 715.36 357.22
  C 714.65 359.27 714.89 361.69 713.17 363.85
  Q 713.01 364.06 712.97 364.31
  C 712.73 365.77 712.71 366.97 712.27 368.38
  Q 706.02 388.56 697.11 407.70
  C 695.57 411.00 693.04 414.56 691.78 417.29
  Q 685.21 431.55 676.71 444.74
  A 0.99 0.97 8.2 0 1 676.15 445.15
  Q 675.18 445.44 675.49 446.38
  A 1.01 1.00 51.9 0 1 675.39 447.23
  C 668.74 457.64 664.51 462.78 659.29 470.70
  Q 657.28 473.74 654.45 476.66
  C 650.83 480.39 647.68 484.91 644.38 488.30
  C 639.90 492.91 636.04 496.80 630.37 501.59
  Q 627.45 504.05 626.69 509.00
  L 576.44 509.00
  C 574.60 506.82 579.90 501.57 581.39 499.92
  Q 581.53 499.76 581.72 499.67
  L 586.86 497.39
  A 1.02 1.00 86.3 0 0 587.41 496.75
  C 588.77 492.00 596.27 489.01 599.11 487.23
  A 1.03 1.02 79.9 0 0 599.56 486.58
  C 600.17 483.63 602.39 483.42 603.92 481.01
  Q 605.40 478.68 606.14 477.93
  C 613.63 470.22 622.15 462.29 628.09 453.33
  C 630.35 449.93 632.85 447.00 634.99 443.38
  Q 637.46 439.21 640.74 435.64
  Q 642.52 433.70 643.60 431.41
  Q 646.85 424.54 651.83 418.75
  A 1.01 1.01 0.0 0 0 652.06 418.20
  C 652.27 416.06 653.59 414.77 654.28 413.38
  C 657.60 406.72 660.64 400.83 664.63 393.66
  Q 668.23 387.19 670.38 380.04
  C 670.88 378.37 672.39 377.24 672.60 375.51
  C 672.97 372.52 674.74 369.82 675.50 367.57
  C 677.56 361.54 679.94 357.10 681.19 351.80
  C 682.88 344.63 684.80 337.06 687.34 330.16
  C 688.18 327.87 688.10 325.47 688.71 323.34
  C 690.56 316.83 690.90 309.70 691.98 303.59
  Q 693.67 294.07 693.45 284.32
  C 693.38 280.92 695.02 278.54 694.24 274.78
  A 0.96 0.94 -41.4 0 1 694.28 274.21
  C 695.74 270.55 696.79 267.78 696.40 263.57
  C 695.78 256.92 696.39 250.63 695.65 243.27
  Q 694.53 232.12 693.28 221.00
  Q 692.95 218.04 693.74 215.23
  Q 693.81 214.98 693.75 214.72
  Q 691.39 205.11 690.77 195.24
  C 690.50 190.96 688.64 187.40 687.93 183.12
  C 687.05 177.80 685.77 173.83 684.37 169.14
  C 683.90 167.58 682.38 164.33 681.95 161.68
  Q 681.61 159.60 681.18 158.41
  C 678.30 150.28 675.47 140.94 672.82 133.91
  C 666.95 118.31 660.01 103.16 651.09 89.06
  C 642.01 74.73 633.20 60.67 622.69 47.31
  Q 617.89 41.21 612.11 36.05
  C 608.86 33.15 606.25 30.01 603.23 26.98
  A 1.04 1.01 -73.6 0 1 602.95 26.45
  C 602.52 23.97 589.85 16.56 587.19 12.58
  Q 585.22 9.64 581.17 7.81
  Q 576.74 5.79 575.55 0.00
  Z"
/>
<path fill="#dadada" d="
  M 624.57 -0.01
  L 659.56 0.00
  Q 662.34 4.34 665.38 8.54
  C 669.09 13.65 674.69 17.16 677.69 23.98
  C 678.77 26.44 681.08 28.01 682.53 30.63
  Q 684.39 33.97 687.45 37.30
  C 689.08 39.07 689.84 41.57 691.34 43.48
  Q 695.14 48.30 697.60 53.96
  A 1.00 0.95 -86.4 0 0 697.97 54.40
  Q 699.85 55.63 700.87 57.66
  Q 704.82 65.59 708.91 73.45
  C 709.57 74.71 711.06 75.63 711.49 76.54
  Q 713.76 81.36 716.32 86.07
  A 1.00 0.98 32.3 0 1 716.44 86.58
  C 716.29 91.05 719.97 95.21 721.10 98.30
  Q 723.03 103.57 725.70 108.49
  C 727.24 111.34 728.01 114.81 730.05 117.94
  Q 732.32 121.44 731.74 125.95
  A 0.97 0.97 0.0 0 0 731.95 126.70
  Q 734.78 130.25 734.54 134.71
  A 0.98 0.92 30.4 0 0 734.72 135.32
  L 737.90 139.97
  A 1.05 1.02 30.8 0 1 738.07 140.60
  Q 737.96 142.29 738.67 143.75
  Q 739.00 144.42 739.27 143.73
  Q 739.50 143.16 739.53 144.49
  Q 739.56 146.00 740.00 146.56
  L 740.00 363.81
  Q 739.56 364.37 739.75 365.07
  A 1.00 1.00 0.0 0 1 739.75 365.59
  Q 739.41 366.85 739.19 365.55
  A 0.45 0.39 -83.2 0 0 739.00 365.27
  C 738.12 364.74 737.95 368.02 737.97 368.37
  A 1.03 1.02 -29.5 0 1 737.79 369.01
  C 734.72 373.45 734.68 377.86 731.88 382.14
  A 1.03 1.02 53.6 0 0 731.76 382.98
  C 733.04 387.12 730.27 389.01 729.01 392.13
  Q 727.64 395.52 725.86 398.69
  A 1.06 1.01 -33.6 0 0 725.73 399.26
  Q 725.85 400.69 725.73 400.99
  C 722.94 407.82 719.34 414.39 716.82 421.28
  C 715.42 425.12 713.04 427.88 711.59 431.25
  C 707.86 439.91 703.15 449.01 697.85 456.86
  C 691.61 466.10 686.09 475.67 678.86 484.10
  Q 675.78 487.68 674.67 490.46
  A 1.02 0.98 86.9 0 1 674.25 490.95
  C 670.26 493.32 668.11 498.13 666.00 500.26
  Q 663.84 502.44 663.07 504.31
  A 1.01 1.00 -2.8 0 1 662.60 504.82
  Q 659.97 506.17 659.44 509.00
  L 626.69 509.00
  Q 627.45 504.05 630.37 501.59
  C 636.04 496.80 639.90 492.91 644.38 488.30
  C 647.68 484.91 650.83 480.39 654.45 476.66
  Q 657.28 473.74 659.29 470.70
  C 664.51 462.78 668.74 457.64 675.39 447.23
  A 1.01 1.00 51.9 0 0 675.49 446.38
  Q 675.18 445.44 676.15 445.15
  A 0.99 0.97 8.2 0 0 676.71 444.74
  Q 685.21 431.55 691.78 417.29
  C 693.04 414.56 695.57 411.00 697.11 407.70
  Q 706.02 388.56 712.27 368.38
  C 712.71 366.97 712.73 365.77 712.97 364.31
  Q 713.01 364.06 713.17 363.85
  C 714.89 361.69 714.65 359.27 715.36 357.22
  C 716.87 352.90 717.13 348.14 719.06 343.93
  C 720.30 341.23 719.71 339.27 720.50 336.72
  Q 722.01 331.83 722.16 326.70
  A 1.02 0.97 68.2 0 1 722.42 326.05
  Q 724.10 324.22 723.22 321.85
  A 0.99 0.98 44.6 0 1 723.21 321.17
  Q 725.52 314.40 725.34 307.32
  C 725.24 303.55 726.17 300.69 727.15 297.28
  A 1.01 0.95 -46.8 0 0 727.15 296.73
  Q 726.03 292.75 729.03 290.50
  A 1.00 1.00 0.0 0 0 729.42 289.52
  C 728.47 284.51 729.73 278.96 729.81 275.25
  Q 730.14 259.52 729.98 243.79
  C 729.94 240.32 731.81 237.77 728.92 234.19
  A 1.01 1.01 0.0 0 1 728.77 233.18
  L 729.52 231.36
  A 0.98 0.95 50.9 0 0 729.57 230.80
  Q 727.84 221.18 728.06 211.40
  C 728.10 209.62 727.36 208.79 726.37 207.50
  A 1.12 1.01 -68.6 0 1 726.17 206.97
  C 725.89 203.45 726.36 200.30 725.25 196.90
  Q 724.49 194.54 723.79 192.16
  C 722.81 188.79 723.76 185.73 721.97 182.16
  A 0.97 0.92 38.8 0 1 721.88 181.50
  Q 722.74 177.67 720.44 174.71
  A 0.99 0.98 -60.3 0 1 720.24 173.96
  Q 720.72 170.62 719.27 167.88
  C 716.50 162.67 718.01 157.18 715.68 151.89
  C 713.22 146.32 711.34 140.68 709.86 134.73
  C 709.38 132.80 708.28 131.41 707.86 129.45
  Q 707.33 126.95 706.26 124.66
  Q 704.74 121.40 704.28 120.06
  Q 699.23 105.41 690.44 91.56
  Q 689.17 89.58 688.81 86.68
  A 1.06 1.00 -76.4 0 0 688.43 86.01
  Q 686.18 84.28 686.22 81.38
  A 1.06 1.01 27.7 0 0 686.01 80.76
  C 685.17 79.67 683.89 78.81 683.34 77.59
  C 680.05 70.30 676.60 64.86 673.79 59.45
  Q 672.58 57.12 670.65 54.87
  C 668.18 52.01 666.68 48.91 664.06 46.02
  Q 660.63 42.22 658.72 37.33
  A 1.01 0.98 -87.8 0 0 658.24 36.80
  Q 652.93 34.16 650.99 28.63
  A 1.04 1.03 7.9 0 0 650.61 28.13
  C 648.40 26.64 647.82 24.53 645.90 23.03
  C 641.12 19.29 638.97 14.77 634.67 11.15
  C 630.90 7.98 628.39 3.37 624.57 -0.01
  Z"
/>
<path fill="#c6c6c6" d="
  M 659.56 0.00
  L 710.47 0.03
  Q 712.20 6.05 717.05 10.06
  A 1.05 0.99 -82.5 0 1 717.36 10.49
  C 719.04 15.22 722.23 17.10 724.45 21.20
  Q 725.90 23.87 728.69 28.31
  Q 735.01 38.38 739.95 44.10
  L 740.00 146.56
  Q 739.56 146.00 739.53 144.49
  Q 739.50 143.16 739.27 143.73
  Q 739.00 144.42 738.67 143.75
  Q 737.96 142.29 738.07 140.60
  A 1.05 1.02 30.8 0 0 737.90 139.97
  L 734.72 135.32
  A 0.98 0.92 30.4 0 1 734.54 134.71
  Q 734.78 130.25 731.95 126.70
  A 0.97 0.97 0.0 0 1 731.74 125.95
  Q 732.32 121.44 730.05 117.94
  C 728.01 114.81 727.24 111.34 725.70 108.49
  Q 723.03 103.57 721.10 98.30
  C 719.97 95.21 716.29 91.05 716.44 86.58
  A 1.00 0.98 32.3 0 0 716.32 86.07
  Q 713.76 81.36 711.49 76.54
  C 711.06 75.63 709.57 74.71 708.91 73.45
  Q 704.82 65.59 700.87 57.66
  Q 699.85 55.63 697.97 54.40
  A 1.00 0.95 -86.4 0 1 697.60 53.96
  Q 695.14 48.30 691.34 43.48
  C 689.84 41.57 689.08 39.07 687.45 37.30
  Q 684.39 33.97 682.53 30.63
  C 681.08 28.01 678.77 26.44 677.69 23.98
  C 674.69 17.16 669.09 13.65 665.38 8.54
  Q 662.34 4.34 659.56 0.00
  Z"
/>
<path fill="#adadad" d="
  M 710.47 0.03
  L 740.00 0.00
  L 739.95 44.10
  Q 735.01 38.38 728.69 28.31
  Q 725.90 23.87 724.45 21.20
  C 722.23 17.10 719.04 15.22 717.36 10.49
  A 1.05 0.99 -82.5 0 0 717.05 10.06
  Q 712.20 6.05 710.47 0.03
  Z"
/>
<path fill="#00011c" d="
  M 335.73 159.67
  Q 341.19 162.76 346.64 165.84
  C 362.39 174.74 378.18 176.42 394.20 166.69
  C 408.74 157.85 421.21 145.70 437.25 134.01
  C 445.98 127.64 455.07 122.67 465.79 123.16
  C 494.09 124.46 501.72 156.47 502.84 178.84
  C 503.01 182.19 503.62 186.07 503.61 189.74
  C 503.56 212.47 498.93 235.35 485.54 254.55
  Q 485.40 254.75 485.28 255.10
  Q 484.34 257.75 486.53 255.99
  Q 489.63 253.50 492.04 250.28
  Q 510.24 226.02 513.60 195.77
  C 515.13 181.97 516.06 173.69 514.67 162.11
  C 513.12 149.14 511.30 138.26 505.03 127.48
  C 490.89 103.15 460.02 97.81 435.55 109.59
  C 419.32 117.41 404.80 129.44 390.27 140.03
  Q 383.55 144.93 374.83 148.11
  C 368.38 150.47 358.05 142.72 353.16 138.97
  Q 340.12 128.97 327.21 118.81
  C 318.41 111.89 307.75 105.63 296.76 102.25
  C 272.67 94.85 246.74 104.30 235.09 127.09
  Q 228.15 140.65 226.18 156.74
  Q 224.17 173.08 224.91 186.56
  C 227.24 228.76 238.81 272.06 254.22 311.31
  Q 263.41 334.71 267.08 341.71
  Q 271.92 350.94 276.53 360.25
  Q 282.93 373.16 294.64 388.99
  C 306.85 405.50 328.55 423.35 339.47 391.70
  Q 342.78 382.10 347.56 366.02
  C 352.46 349.55 357.66 337.93 367.73 326.23
  Q 368.84 324.94 370.04 325.75
  C 350.72 345.51 348.53 370.88 339.06 395.31
  C 332.19 413.02 318.88 413.97 305.56 402.44
  Q 296.42 394.53 286.93 379.54
  C 258.79 335.12 239.93 281.95 229.72 230.56
  C 223.19 197.70 218.90 156.61 234.82 126.08
  C 249.13 98.64 282.26 92.08 308.51 106.05
  Q 322.55 113.52 334.93 123.56
  C 344.79 131.55 355.62 141.35 366.82 146.44
  Q 372.39 148.97 378.40 145.98
  C 401.96 134.25 420.21 111.72 446.22 104.59
  Q 466.94 98.92 485.86 108.39
  C 526.05 128.53 519.75 198.10 504.42 231.47
  Q 494.87 252.25 477.36 266.17
  Q 470.06 271.97 476.26 265.01
  Q 501.15 237.09 502.47 198.25
  Q 502.91 185.07 500.74 168.75
  C 497.95 147.86 490.12 125.63 465.84 124.21
  C 451.72 123.37 439.40 132.71 429.10 141.11
  Q 417.67 150.45 406.02 159.52
  C 389.10 172.71 371.71 179.65 351.21 169.26
  Q 342.07 164.63 335.73 159.67
  Z"
/>
<path fill="#253570" d="
  M 335.73 159.67
  Q 323.06 150.75 310.74 141.27
  C 303.71 135.86 293.01 128.94 284.03 128.22
  Q 280.88 127.96 277.63 127.50
  Q 263.38 129.42 257.53 143.79
  C 249.66 163.13 250.78 184.45 252.70 204.67
  Q 253.43 212.34 254.32 218.13
  Q 266.48 296.58 299.55 365.46
  Q 305.30 377.43 316.39 391.58
  Q 317.11 392.49 321.17 395.49
  A 0.80 0.79 36.2 0 0 322.29 395.32
  L 322.50 395.04
  L 323.25 394.96
  Q 325.21 394.75 326.36 392.58
  Q 332.94 380.05 337.60 368.71
  C 344.02 353.05 352.29 336.05 366.58 325.43
  C 367.07 325.07 367.90 323.98 366.50 323.96
  Q 373.00 319.02 380.32 315.59
  Q 387.23 312.36 380.96 316.70
  Q 375.13 320.73 370.04 325.75
  Q 368.84 324.94 367.73 326.23
  C 357.66 337.93 352.46 349.55 347.56 366.02
  Q 342.78 382.10 339.47 391.70
  C 328.55 423.35 306.85 405.50 294.64 388.99
  Q 282.93 373.16 276.53 360.25
  Q 271.92 350.94 267.08 341.71
  Q 263.41 334.71 254.22 311.31
  C 238.81 272.06 227.24 228.76 224.91 186.56
  Q 224.17 173.08 226.18 156.74
  Q 228.15 140.65 235.09 127.09
  C 246.74 104.30 272.67 94.85 296.76 102.25
  C 307.75 105.63 318.41 111.89 327.21 118.81
  Q 340.12 128.97 353.16 138.97
  C 358.05 142.72 368.38 150.47 374.83 148.11
  Q 383.55 144.93 390.27 140.03
  C 404.80 129.44 419.32 117.41 435.55 109.59
  C 460.02 97.81 490.89 103.15 505.03 127.48
  C 511.30 138.26 513.12 149.14 514.67 162.11
  C 516.06 173.69 515.13 181.97 513.60 195.77
  Q 510.24 226.02 492.04 250.28
  Q 489.63 253.50 486.53 255.99
  Q 484.34 257.75 485.28 255.10
  Q 485.40 254.75 485.54 254.55
  C 498.93 235.35 503.56 212.47 503.61 189.74
  C 503.62 186.07 503.01 182.19 502.84 178.84
  C 501.72 156.47 494.09 124.46 465.79 123.16
  C 455.07 122.67 445.98 127.64 437.25 134.01
  C 421.21 145.70 408.74 157.85 394.20 166.69
  C 378.18 176.42 362.39 174.74 346.64 165.84
  Q 341.19 162.76 335.73 159.67
  Z"
/>
<path fill="#00011c" d="
  M 277.63 127.50
  Q 270.86 129.01 265.88 133.19
  C 252.36 144.53 251.92 173.23 252.64 188.75
  C 254.84 236.52 267.93 285.28 284.86 329.84
  Q 293.45 352.46 305.18 373.62
  C 309.25 380.96 315.06 390.75 322.50 395.04
  L 322.29 395.32
  A 0.80 0.79 36.2 0 1 321.17 395.49
  Q 317.11 392.49 316.39 391.58
  Q 305.30 377.43 299.55 365.46
  Q 266.48 296.58 254.32 218.13
  Q 253.43 212.34 252.70 204.67
  C 250.78 184.45 249.66 163.13 257.53 143.79
  Q 263.38 129.42 277.63 127.50
  Z"
/>
<path fill="#0986c8" d="
  M 268.45 163.00
  C 277.37 130.42 306.48 154.01 319.79 165.44
  C 336.36 179.66 352.93 195.50 375.44 199.16
  C 375.81 199.22 375.79 199.53 375.38 199.53
  C 346.22 199.29 321.25 175.92 300.72 162.27
  C 296.99 159.79 286.35 153.65 282.19 158.59
  C 276.92 164.83 275.97 185.06 276.27 193.01
  C 276.84 208.13 278.39 222.89 281.23 238.10
  Q 293.31 302.61 318.86 363.05
  Q 322.40 371.42 317.45 363.79
  Q 313.65 357.94 311.76 354.47
  Q 280.27 296.68 268.63 232.11
  C 264.63 209.89 262.46 184.85 268.45 163.00
  Z"
/>
<path fill="#0986c8" d="
  M 344.44 256.31
  Q 337.36 251.82 332.02 246.58
  A 1.01 1.00 -70.1 0 1 331.73 245.95
  Q 331.42 242.38 335.03 242.22
  A 1.02 1.02 0.0 0 1 335.69 242.44
  C 368.70 268.41 417.45 256.97 432.92 216.65
  A 1.00 1.00 0.0 0 0 432.68 215.57
  C 430.03 213.04 425.84 208.00 429.70 205.17
  Q 431.90 203.55 432.88 206.02
  Q 436.59 215.32 445.19 212.06
  C 448.09 210.96 451.81 210.45 450.04 215.35
  A 1.12 1.08 -7.6 0 1 449.65 215.84
  Q 445.78 218.44 441.02 218.51
  A 1.00 1.00 0.0 0 0 440.11 219.13
  C 432.03 238.85 420.10 262.16 398.01 269.09
  C 378.33 275.27 360.56 266.56 344.44 256.31
  Z"
/>
<path fill="#0986c8" d="
  M 459.06 314.70
  Q 446.99 316.59 438.43 317.12
  Q 423.51 318.05 406.71 317.67
  Q 395.22 317.41 406.67 316.39
  Q 420.41 315.17 434.03 312.89
  C 443.75 311.25 460.65 307.18 466.00 297.83
  Q 468.70 293.12 467.26 287.46
  Q 466.59 284.82 468.58 286.67
  Q 474.61 292.28 477.08 300.21
  C 478.54 304.88 472.51 309.90 468.17 311.67
  Q 466.58 312.32 462.10 313.80
  A 1.00 1.00 0.0 0 0 461.73 315.48
  Q 466.75 320.22 467.84 325.70
  C 469.67 334.79 451.24 337.43 445.47 338.00
  Q 432.29 339.31 419.07 339.31
  Q 403.75 339.32 418.99 337.72
  Q 424.88 337.10 430.74 336.23
  C 439.63 334.90 449.87 332.46 456.83 326.84
  Q 461.99 322.67 460.18 315.45
  A 1.00 0.99 78.6 0 0 459.06 314.70
  Z"
/>
<path fill="#00011c" d="
  M 366.50 323.96
  C 367.90 323.98 367.07 325.07 366.58 325.43
  C 352.29 336.05 344.02 353.05 337.60 368.71
  Q 332.94 380.05 326.36 392.58
  Q 325.21 394.75 323.25 394.96
  Q 329.44 386.51 333.18 376.68
  C 340.81 356.65 349.79 337.10 366.50 323.96
  Z"
/>
<path fill="#0986c8" d="
  M 427.78 360.29
  Q 409.56 360.79 427.66 358.69
  Q 428.57 358.59 429.50 358.47
  C 436.48 357.63 445.08 355.98 450.73 351.50
  Q 454.66 348.39 454.04 343.70
  Q 453.70 341.11 455.44 343.07
  Q 456.61 344.40 457.63 345.89
  C 464.78 356.32 449.68 358.82 443.73 359.35
  Q 435.77 360.06 427.78 360.29
  Z"
/>
<path fill="#c6c6c6" d="
  M 740.00 363.81
  L 740.01 447.83
  L 737.41 449.97
  A 0.96 0.96 0.0 0 0 737.08 450.48
  Q 736.59 452.29 734.99 454.50
  Q 733.00 457.26 730.50 463.62
  A 1.05 1.01 83.7 0 1 730.16 464.06
  Q 726.60 466.68 725.76 471.00
  Q 725.26 473.57 722.98 475.58
  C 721.08 477.26 720.46 480.14 718.69 482.21
  C 717.10 484.07 715.94 486.51 714.69 488.21
  Q 711.97 491.93 709.20 495.63
  C 706.83 498.81 706.09 502.44 702.15 505.15
  A 1.00 0.99 81.1 0 0 701.76 505.69
  Q 701.28 507.35 700.06 508.44
  A 0.96 0.92 -67.1 0 1 699.48 508.69
  L 695.94 509.00
  L 659.44 509.00
  Q 659.97 506.17 662.60 504.82
  A 1.01 1.00 -2.8 0 0 663.07 504.31
  Q 663.84 502.44 666.00 500.26
  C 668.11 498.13 670.26 493.32 674.25 490.95
  A 1.02 0.98 86.9 0 0 674.67 490.46
  Q 675.78 487.68 678.86 484.10
  C 686.09 475.67 691.61 466.10 697.85 456.86
  C 703.15 449.01 707.86 439.91 711.59 431.25
  C 713.04 427.88 715.42 425.12 716.82 421.28
  C 719.34 414.39 722.94 407.82 725.73 400.99
  Q 725.85 400.69 725.73 399.26
  A 1.06 1.01 -33.6 0 1 725.86 398.69
  Q 727.64 395.52 729.01 392.13
  C 730.27 389.01 733.04 387.12 731.76 382.98
  A 1.03 1.02 53.6 0 1 731.88 382.14
  C 734.68 377.86 734.72 373.45 737.79 369.01
  A 1.03 1.02 -29.5 0 0 737.97 368.37
  C 737.95 368.02 738.12 364.74 739.00 365.27
  A 0.45 0.39 -83.2 0 1 739.19 365.55
  Q 739.41 366.85 739.75 365.59
  A 1.00 1.00 0.0 0 0 739.75 365.07
  Q 739.56 364.37 740.00 363.81
  Z"
/>
<path fill="#0986c8" d="
  M 424.42 397.37
  Q 419.09 390.57 416.36 382.10
  A 1.00 1.00 0.0 0 1 417.28 380.79
  Q 426.36 380.50 435.24 378.25
  C 438.93 377.31 445.08 375.22 446.21 371.51
  Q 446.58 370.28 446.17 369.01
  Q 445.47 366.87 447.19 368.32
  Q 450.50 371.11 450.22 375.02
  C 449.73 381.85 438.52 406.33 429.54 402.10
  Q 427.29 401.04 424.42 397.37
  Z"
/>
<path fill="#c6c6c6" d="
  M 0.00 367.69
  Q 1.29 367.81 1.44 369.09
  A 1.03 0.99 -76.6 0 0 1.84 369.77
  Q 3.25 370.82 3.57 371.98
  C 6.46 382.52 11.60 394.07 14.82 402.32
  C 21.63 419.76 30.38 435.69 39.07 451.69
  C 40.61 454.52 43.04 457.18 44.72 460.29
  Q 46.03 462.74 47.94 465.26
  C 49.92 467.86 51.04 470.88 53.01 473.33
  Q 55.98 477.02 58.71 480.89
  C 60.57 483.53 63.50 486.13 65.19 489.57
  A 0.99 0.90 4.8 0 0 65.56 489.97
  Q 68.23 491.63 69.25 494.62
  A 1.08 1.02 10.7 0 0 69.59 495.09
  Q 73.60 498.16 75.87 502.68
  A 1.02 0.98 4.4 0 0 76.22 503.07
  Q 79.51 505.21 79.97 508.99
  L 0.00 509.00
  L 0.00 367.69
  Z"
/>
<path fill="#adadad" d="
  M 740.01 447.83
  L 740.00 509.00
  L 695.94 509.00
  L 699.48 508.69
  A 0.96 0.92 -67.1 0 0 700.06 508.44
  Q 701.28 507.35 701.76 505.69
  A 1.00 0.99 81.1 0 1 702.15 505.15
  C 706.09 502.44 706.83 498.81 709.20 495.63
  Q 711.97 491.93 714.69 488.21
  C 715.94 486.51 717.10 484.07 718.69 482.21
  C 720.46 480.14 721.08 477.26 722.98 475.58
  Q 725.26 473.57 725.76 471.00
  Q 726.60 466.68 730.16 464.06
  A 1.05 1.01 83.7 0 0 730.50 463.62
  Q 733.00 457.26 734.99 454.50
  Q 736.59 452.29 737.08 450.48
  A 0.96 0.96 0.0 0 1 737.41 449.97
  L 740.01 447.83
  Z"
/>
</svg>
