<?xml version="1.0" encoding="UTF-8" standalone="no"?>
<!DOCTYPE svg PUBLIC "-//W3C//DTD SVG 1.1//EN" "http://www.w3.org/Graphics/SVG/1.1/DTD/svg11.dtd">
<svg xmlns="http://www.w3.org/2000/svg" version="1.1" viewBox="0 0 246 263">
<path fill="#253570" d="
  M 58.62 29.56
  C 42.91 23.23 32.96 33.97 29.71 48.29
  C 25.37 67.46 27.28 87.51 30.45 106.72
  Q 38.22 153.78 55.90 198.08
  C 61.60 212.36 68.33 226.97 77.63 239.35
  Q 80.48 243.14 83.89 245.24
  A 1.00 1.00 0.0 0 0 85.11 245.11
  Q 87.44 242.83 88.38 240.85
  C 95.29 226.42 101.55 205.15 115.22 191.96
  Q 121.76 185.64 129.96 181.58
  Q 135.25 178.96 130.49 182.45
  Q 129.89 182.89 129.28 183.32
  C 111.20 196.10 105.39 219.50 99.88 239.67
  C 98.24 245.71 94.40 254.37 88.27 256.79
  C 73.12 262.74 54.85 232.41 49.09 221.92
  C 25.18 178.42 7.44 126.37 4.55 76.08
  C 3.29 54.05 6.84 22.53 28.71 10.13
  C 60.76 -8.04 88.88 20.94 112.18 38.28
  C 118.20 42.77 123.43 45.91 130.28 42.51
  C 156.49 29.51 175.98 0.06 209.49 9.30
  C 245.77 19.30 244.86 67.60 238.15 95.77
  Q 232.10 121.16 213.29 137.76
  Q 206.05 144.16 212.14 136.66
  Q 228.77 116.19 230.54 88.76
  C 231.78 69.45 230.43 30.09 205.03 25.38
  Q 194.58 23.45 184.97 28.95
  C 170.29 37.35 158.54 49.96 144.38 59.17
  C 110.67 81.13 86.45 40.78 58.62 29.56
  Z"
/>
<path fill="#0886c9" d="
  M 115.85 83.03
  Q 127.59 87.85 115.34 84.54
  Q 110.85 83.33 106.59 81.30
  C 90.26 73.55 77.33 61.84 61.73 53.04
  Q 51.63 47.34 49.00 58.16
  C 45.17 73.97 46.03 88.85 48.85 106.99
  C 54.82 145.35 66.34 186.10 82.28 221.95
  Q 82.51 222.12 82.53 222.29
  Q 82.63 223.19 82.15 222.43
  C 60.85 189.18 47.00 148.98 40.28 110.25
  Q 36.34 87.60 38.34 67.07
  C 39.71 52.96 47.35 35.56 65.65 46.87
  C 78.33 54.71 91.17 67.12 100.69 74.30
  Q 107.97 79.79 115.85 83.03
  Z"
/>
<path fill="#0886c9" d="
  M 95.08 121.48
  C 119.24 140.60 152.60 134.81 169.57 109.80
  Q 172.53 105.45 174.41 99.88
  A 1.00 1.00 0.0 0 0 174.14 98.82
  Q 172.08 96.95 170.84 94.61
  C 169.80 92.65 170.77 90.35 173.36 91.58
  A 1.01 0.99 -89.4 0 1 173.85 92.09
  C 178.17 101.97 185.60 94.35 187.89 96.88
  A 1.00 1.00 0.0 0 1 188.11 97.82
  C 187.16 101.22 182.42 100.48 179.86 101.81
  A 0.95 0.94 -4.6 0 0 179.37 102.38
  Q 174.58 116.98 164.04 129.53
  C 142.63 155.04 114.56 143.05 93.60 125.55
  C 91.72 123.98 91.11 121.77 94.30 121.28
  A 1.02 1.00 58.8 0 1 95.08 121.48
  Z"
/>
<path fill="#0886c9" d="
  M 197.75 179.11
  Q 196.03 179.61 197.36 180.81
  C 201.35 184.44 205.50 191.77 198.19 195.17
  C 186.72 200.51 169.27 200.38 157.50 199.81
  Q 156.87 199.78 157.09 199.41
  A 0.44 0.43 15.2 0 1 157.43 199.22
  C 168.16 198.77 181.33 197.14 190.69 192.23
  Q 197.94 188.43 196.76 180.29
  A 1.00 0.99 81.0 0 0 195.61 179.45
  C 192.95 179.88 190.27 180.63 187.71 180.88
  Q 173.41 182.32 159.06 182.23
  Q 147.10 182.17 159.00 180.96
  Q 159.84 180.87 160.75 180.78
  C 172.60 179.63 187.66 177.54 197.41 170.69
  Q 203.49 166.42 202.73 159.07
  Q 202.49 156.78 204.10 158.43
  Q 207.11 161.52 208.80 165.19
  C 212.63 173.56 204.03 177.29 197.75 179.11
  Z"
/>
<path fill="#0886c9" d="
  M 191.61 204.36
  Q 191.60 204.11 191.60 203.85
  Q 191.61 202.60 192.48 203.50
  Q 198.41 209.69 193.02 213.19
  Q 190.68 214.71 185.42 215.72
  C 183.63 216.07 164.79 218.21 165.26 216.67
  A 0.21 0.17 0.9 0 1 165.43 216.54
  C 171.94 215.80 192.07 214.09 191.61 204.36
  Z"
/>
<path fill="#0886c9" d="
  M 169.43 249.31
  Q 163.74 243.27 161.14 235.29
  A 1.00 0.99 -10.1 0 1 162.05 233.99
  Q 172.27 233.54 181.58 229.75
  Q 185.05 228.34 185.12 225.03
  Q 185.16 222.93 186.53 224.52
  Q 188.56 226.89 187.66 230.26
  C 186.28 235.48 177.55 257.92 169.43 249.31
  Z"
/>
</svg>
